<svg width="20" height="16" viewBox="0 0 20 16" fill="none" xmlns="http://www.w3.org/2000/svg">
<rect width="20" height="16" fill="#E5E5E5"/>
<g id="&#208;&#159;&#209;&#128;&#208;&#190;&#209;&#129;&#208;&#188;&#208;&#190;&#209;&#130;&#209;&#128; &#208;&#186;&#208;&#176;&#209;&#128;&#209;&#130;&#209;&#139;">
<rect width="1440" height="1024" transform="translate(-332 -539)" fill="white"/>
<g id="Group 299">
<g id="CardBase">
<rect id="CardBase_2" x="-282" y="-229" width="606" height="288" rx="50" fill="#F3F4F6"/>
</g>
<g id="Button icon on left">
<rect x="-26" y="-18" width="164" height="52" rx="7" fill="#116ACC"/>
<g id="Frame 310">
<g id="basic / mail">
<path id="coolicon" d="M18 16H2C0.89543 16 0 15.1046 0 14V1.913C0.0466084 0.842547 0.928533 -0.00101428 2 -9.95438e-07H18C19.1046 -9.95438e-07 20 0.89543 20 2V14C20 15.1046 19.1046 16 18 16ZM2 3.868V14H18V3.868L10 9.2L2 3.868ZM2.8 2L10 6.8L17.2 2H2.8Z" fill="white"/>
</g>
</g>
</g>
</g>
</g>
</svg>
